<svg id="Layer_1" data-name="Layer 1" xmlns="http://www.w3.org/2000/svg" viewBox="0 0 100 100"><path d="M89.48,32.42H86.31v-8a4.83,4.83,0,0,0-4.83-4.82H28.4V6.68a4.82,4.82,0,0,0-4.82-4.82H7.49A4.82,4.82,0,0,0,2.67,6.68V96.75a1.43,1.43,0,0,0,0,.22,1.85,1.85,0,0,0,0,.23,1.78,1.78,0,0,0,.21.44,1.33,1.33,0,0,0,.06.12l0,0a1.57,1.57,0,0,0,.51.41l.14,0a1.27,1.27,0,0,0,.39.12H78a8,8,0,0,0,7.84-6.23L97.32,42.27a8,8,0,0,0-7.84-9.85ZM7.49,5.07H23.58a1.62,1.62,0,0,1,1.61,1.61V21.16a1.61,1.61,0,0,0,1.6,1.61H81.48a1.61,1.61,0,0,1,1.61,1.6v8.05H23.87A8,8,0,0,0,16,38.65l-10.15,44V6.68A1.62,1.62,0,0,1,7.49,5.07ZM94.18,41.54,82.67,91.41A4.8,4.8,0,0,1,78,95.15H6.3L19.17,39.37a4.81,4.81,0,0,1,4.7-3.74H89.48a4.83,4.83,0,0,1,4.7,5.91Z"/><path d="M70.22,68.1V58.15a1.6,1.6,0,0,0-.84-1.41L51.69,47.09a1.62,1.62,0,0,0-1.54,0L32.46,56.74a1.6,1.6,0,0,0,0,2.82l7.2,3.93v9.14a1.59,1.59,0,0,0,1.08,1.51,30.43,30.43,0,0,0,8.48,1.7c.57,0,1.14,0,1.7,0A30.65,30.65,0,0,0,61.1,74.14a1.59,1.59,0,0,0,1.08-1.51V63.49L67,60.86V68.1a4.83,4.83,0,0,0-3.22,4.53v4.82a1.61,1.61,0,0,0,1.61,1.61h6.43a1.61,1.61,0,0,0,1.61-1.61V72.63A4.81,4.81,0,0,0,70.22,68.1ZM59,65.25v6.21a27.43,27.43,0,0,1-9.56,1.17,26.82,26.82,0,0,1-6.52-1.17V65.25l7.27,4a1.53,1.53,0,0,0,.77.2,1.5,1.5,0,0,0,.77-.2Zm-8,.72L36.59,58.15l14.33-7.82,14.34,7.82Zm19.3,9.87H67V72.63a1.61,1.61,0,1,1,3.21,0Z"/></svg>