<svg id="Layer_2" data-name="Layer 2" xmlns="http://www.w3.org/2000/svg" viewBox="0 0 100 100"><path d="M58.74,67.06a18.81,18.81,0,1,0-16.89,0A32.77,32.77,0,0,0,17.63,98.65a1.56,1.56,0,1,0,3.12,0,29.58,29.58,0,1,1,59.16,0,1.57,1.57,0,1,0,3.13,0A32.77,32.77,0,0,0,58.74,67.06ZM34.61,50.27A15.68,15.68,0,1,1,50.29,66h0A15.7,15.7,0,0,1,34.61,50.27Z"/><path d="M56.39,22.09a1.52,1.52,0,0,1-.73-.18l-5.37-2.82-5.36,2.82a1.56,1.56,0,0,1-2.11-.66,1.54,1.54,0,0,1-.16-1l1-6-4.32-4.22a1.56,1.56,0,0,1,0-2.21,1.58,1.58,0,0,1,.89-.45l6-.88L48.9,1.09A1.55,1.55,0,0,1,51,.39a1.58,1.58,0,0,1,.7.7l2.69,5.47,6,.84a1.56,1.56,0,0,1,1.32,1.77,1.54,1.54,0,0,1-.46.89L56.9,14.28l1,6a1.58,1.58,0,0,1-1.28,1.81,1.37,1.37,0,0,1-.29,0Zm-6.1-6.33a1.52,1.52,0,0,1,.73.18l3.29,1.73L53.68,14a1.58,1.58,0,0,1,.45-1.38L56.79,10,53.11,9.5a1.61,1.61,0,0,1-1.17-.85L50.29,5.31,48.65,8.65a1.58,1.58,0,0,1-1.18.85L43.79,10l2.67,2.59A1.57,1.57,0,0,1,46.9,14l-.62,3.67,3.29-1.73A1.51,1.51,0,0,1,50.29,15.76Z"/><path d="M24.36,38.5a1.64,1.64,0,0,1-.73-.18L18.26,35.5,12.9,38.32a1.57,1.57,0,0,1-2.27-1.65l1-6L7.32,26.47a1.57,1.57,0,0,1,0-2.21,1.54,1.54,0,0,1,.89-.46l6-.87,2.69-5.43a1.56,1.56,0,0,1,2.1-.7,1.53,1.53,0,0,1,.7.7L22.36,23l6,.87a1.56,1.56,0,0,1,1.27,1.81,1.62,1.62,0,0,1-.42.82l-4.33,4.21,1,6a1.58,1.58,0,0,1-1.28,1.81l-.29,0Zm-6.1-6.33a1.55,1.55,0,0,1,.73.18l3.29,1.72-.63-3.66A1.54,1.54,0,0,1,22.1,29l2.66-2.6-3.68-.53a1.56,1.56,0,0,1-1.17-.85l-1.65-3.33-1.64,3.33a1.56,1.56,0,0,1-1.18.85l-3.68.53L14.43,29a1.56,1.56,0,0,1,.44,1.38l-.62,3.66,3.29-1.72A1.51,1.51,0,0,1,18.26,32.17Z"/><path d="M88.42,38.5a1.71,1.71,0,0,1-.73-.18L82.32,35.5,77,38.32a1.57,1.57,0,0,1-2.27-1.65l1-6-4.33-4.21a1.56,1.56,0,0,1,0-2.21,1.54,1.54,0,0,1,.89-.46l6-.87,2.68-5.43a1.56,1.56,0,0,1,2.1-.7,1.53,1.53,0,0,1,.7.7L86.42,23l6,.87a1.56,1.56,0,0,1,1.27,1.81,1.62,1.62,0,0,1-.42.82l-4.33,4.21,1,6a1.58,1.58,0,0,1-1.28,1.81l-.28,0Zm-6.1-6.33a1.52,1.52,0,0,1,.73.18l3.29,1.72-.62-3.66A1.54,1.54,0,0,1,86.16,29l2.66-2.6-3.67-.53A1.56,1.56,0,0,1,84,25.05l-1.65-3.33-1.64,3.33a1.54,1.54,0,0,1-1.18.85l-3.68.53L78.49,29a1.54,1.54,0,0,1,.44,1.38l-.62,3.66,3.29-1.72A1.51,1.51,0,0,1,82.32,32.17Z"/><path d="M5.62,69A1.56,1.56,0,0,1,4,67.43a1.37,1.37,0,0,1,0-.29l1.05-6L.76,56.93a1.55,1.55,0,0,1,0-2.21,1.58,1.58,0,0,1,.89-.45l6-.87L10.31,48a1.55,1.55,0,0,1,2.8,0l2.68,5.43,6,.87A1.57,1.57,0,0,1,23.12,56a1.54,1.54,0,0,1-.46.89l-4.34,4.22,1,6a1.55,1.55,0,0,1-1.27,1.8,1.58,1.58,0,0,1-1-.15L11.72,66,6.35,68.79A1.71,1.71,0,0,1,5.62,69ZM5.22,56.9l2.65,2.6a1.53,1.53,0,0,1,.45,1.38l-.63,3.66L11,62.82a1.55,1.55,0,0,1,1.45,0l3.29,1.72-.59-3.66a1.53,1.53,0,0,1,.45-1.38l2.66-2.6-3.68-.53a1.54,1.54,0,0,1-1.17-.85l-1.65-3.34-1.64,3.34a1.58,1.58,0,0,1-1.22.85Z"/><path d="M95,69a1.64,1.64,0,0,1-.73-.18L88.87,66l-5.36,2.82a1.57,1.57,0,0,1-2.11-.66,1.55,1.55,0,0,1-.15-1l1-6-4.34-4.22a1.56,1.56,0,0,1,0-2.21,1.58,1.58,0,0,1,.89-.45l6-.87L87.47,48a1.56,1.56,0,0,1,2.81,0L93,53.4l6,.87A1.57,1.57,0,0,1,100.28,56a1.54,1.54,0,0,1-.46.89l-4.34,4.22,1,6a1.56,1.56,0,0,1-1.27,1.81l-.29,0Zm-6.1-6.33a1.58,1.58,0,0,1,.73.18l3.3,1.72-.64-3.66a1.57,1.57,0,0,1,.46-1.38l2.65-2.6-3.67-.53a1.56,1.56,0,0,1-1.18-.85l-1.65-3.34-1.64,3.34a1.56,1.56,0,0,1-1.18.85l-3.67.53L85,59.5a1.56,1.56,0,0,1,.45,1.38l-.63,3.66,3.29-1.72A1.51,1.51,0,0,1,88.87,62.64Z"/></svg>