<svg id="Layer_3" data-name="Layer 3" xmlns="http://www.w3.org/2000/svg" viewBox="0 0 100 100"><path d="M93.81,46c2.21-.83,4.32-1.74,6.46-2.76A50.05,50.05,0,0,0,97,31.08c-2.31.16-4.69.47-7,.84a43.65,43.65,0,0,0-4.14-7.17c1.46-1.8,2.87-3.68,4.21-5.63a48.78,48.78,0,0,0-8.85-8.85q-2.92,2-5.63,4.2a42.77,42.77,0,0,0-7.17-4.15c.37-2.3.68-4.68.84-7A49.72,49.72,0,0,0,57.16.11c-1,2.14-1.94,4.24-2.77,6.46a43.72,43.72,0,0,0-8.25,0c-.83-2.22-1.75-4.32-2.77-6.46A50.28,50.28,0,0,0,31.23,3.33c.17,2.31.47,4.7.85,7a43.65,43.65,0,0,0-7.17,4.14q-2.7-2.21-5.63-4.21a48.52,48.52,0,0,0-8.86,8.85c1.34,1.95,2.75,3.82,4.21,5.62a43.56,43.56,0,0,0-4.15,7.18c-2.3-.37-4.68-.68-7-.84A49.58,49.58,0,0,0,.27,43.22c2.14,1,4.24,1.93,6.46,2.76a43.84,43.84,0,0,0,0,8.26C4.51,55.07,2.41,56,.27,57A49.7,49.7,0,0,0,3.49,69.14c2.31-.16,4.7-.47,7-.84a44.37,44.37,0,0,0,4.14,7.17c-1.46,1.8-2.87,3.67-4.21,5.63A48.89,48.89,0,0,0,19.28,90q2.92-2,5.62-4.21a43.47,43.47,0,0,0,7.17,4.15c-.37,2.3-.67,4.68-.84,7a50.28,50.28,0,0,0,12.14,3.22c1-2.15,1.94-4.25,2.77-6.46a43.83,43.83,0,0,0,8.26,0c.83,2.22,1.74,4.32,2.76,6.46A50.15,50.15,0,0,0,69.3,96.89c-.16-2.32-.47-4.7-.84-7a43.65,43.65,0,0,0,7.17-4.14c1.8,1.46,3.68,2.87,5.63,4.21a48.15,48.15,0,0,0,8.85-8.85c-1.34-1.95-2.74-3.83-4.2-5.62a44,44,0,0,0,4.15-7.18c2.3.38,4.68.68,7,.84A50.17,50.17,0,0,0,100.27,57c-2.15-1-4.25-1.93-6.47-2.76A43,43,0,0,0,93.81,46ZM68.73,77.5V63.34c0-7.2-7-13-14.18-13l-4,4.92,4,18.62-4.5,4.6-4.5-4.6,4-18.62-4-4.92c-7.2,0-14.18,5.84-14.18,13V77a33,33,0,1,1,37.36.46ZM61.08,37.69a11,11,0,1,1-11-11A11,11,0,0,1,61.08,37.69Z"/></svg>