<svg id="Layer_4" data-name="Layer 4" xmlns="http://www.w3.org/2000/svg" viewBox="0 0 100 100"><path d="M72.07,87h-5.8v-5.8h-32V87h-5.8a4,4,0,0,0,0,8h43.8a4,4,0,0,0,4-4A4.34,4.34,0,0,0,72.07,87Z"/><path d="M7.07,14.41a.2.2,0,0,1,.2-.2h40.2V9.41H7.27a5.08,5.08,0,0,0-5,5V63h4.8Z"/><path d="M93.27,9.41h-2v4.8h2a.2.2,0,0,1,.2.2V63h4.8V14.41A5.08,5.08,0,0,0,93.27,9.41Z"/><path d="M2.27,74.41a5,5,0,0,0,5,5h86a5,5,0,0,0,5-5V65h-96Zm85.6-5.2a2.86,2.86,0,0,1,2.8,2.8,2.8,2.8,0,1,1-2.8-2.8Zm-9.6,0a2.86,2.86,0,0,1,2.8,2.8,2.8,2.8,0,1,1-2.8-2.8Zm-9.6,0a2.86,2.86,0,0,1,2.8,2.8,2.8,2.8,0,1,1-2.8-2.8Z"/><path d="M32.27,46l.6.6.6-.6h-1.2Z"/><path d="M16.47,53.41c-.2,1.2-.8,6.6-1,9.6h14l.4-8.2a2.69,2.69,0,0,1-1.4-1.2L25.27,48c-.2,0-.4.2-.6.2-2.2,1-4.6,2-5,2.2C18.47,51,16.67,52,16.47,53.41Z"/><path d="M40.87,48l-3.2,5.6a2.69,2.69,0,0,1-1.4,1.2l.4,8.2h14c-.2-3-.8-8.4-1-9.6-.2-1.4-2-2.4-3.2-3C45.87,50.21,43.07,49,40.87,48Z"/><path d="M34.67,52.61c.2.4.8.4,1.2,0l3.2-5.4h0l-1.4-1.6L33.27,49l-4.4-3.4-1.4,1.6,3.2,5.4c.2.4.8.4,1.2,0l.2-.4.4.8-.4,10.2h3L34.67,53l.4-.8Z"/><path d="M23.27,34.81c.2,1.4,1,2.4,1.8,2.4h.2c.8,4,4,7.2,7.6,7.2s6.6-3,7.6-7.2h.2c.8.2,1.6-1,1.8-2.4s-.2-2.6-.8-2.8h-.4v-.4c1-5.2-1.4-7.2-3.4-7.4h-.6a1.89,1.89,0,0,0-1.8-2.2c-2.4-.2-10.6.8-11.2,6.2a14.45,14.45,0,0,0-.2,4C23.27,32.21,23.07,33.41,23.27,34.81Z"/><path d="M53.07,25h1.2v4c0,.6.8,1,1.2.6l4.6-4.6h25.6a3.59,3.59,0,0,0,3.6-3.6V8.81a3.59,3.59,0,0,0-3.6-3.6H53.07a3.59,3.59,0,0,0-3.6,3.6v12.6A3.59,3.59,0,0,0,53.07,25Zm24.2-12.6a2.6,2.6,0,1,1-2.6,2.6A2.41,2.41,0,0,1,77.27,12.41Zm-7.8,0a2.6,2.6,0,1,1-2.6,2.6A2.41,2.41,0,0,1,69.47,12.41Zm-7.8,0a2.6,2.6,0,1,1-2.6,2.6A2.41,2.41,0,0,1,61.67,12.41Z"/></svg>