<svg id="Layer_5" data-name="Layer 5" xmlns="http://www.w3.org/2000/svg" viewBox="0 0 100 100"><path d="M53,64.11h-4.5a4.6,4.6,0,0,0-4.5,3.5l-.6,2.5a22.12,22.12,0,0,0,2.3,16.5l5.1,8.7,5.1-8.7a22.12,22.12,0,0,0,2.3-16.5l-.6-2.5A4.8,4.8,0,0,0,53,64.11Zm-.3,10.3-1.9,3.2-1.9-3.2a7.64,7.64,0,0,1-.8-6.1l.2-.9a1.71,1.71,0,0,1,1.7-1.3h1.6a1.71,1.71,0,0,1,1.7,1.3l.2.9A8.69,8.69,0,0,1,52.72,74.41Z"/><path d="M30.62,56.21l6-2.6c.3,2.1.7,4.2,1.1,6.3h0a2,2,0,0,0,2,1.5L46,61a63.15,63.15,0,0,1,8.7,0l6,.4a1.86,1.86,0,0,0,2-1.4q.75-3.15,1.2-6.3l6,2.6a1,1,0,0,0,1.4-1l-.5-2.6a17.45,17.45,0,0,0-6.3-10.4,65,65,0,0,0-10.9-33.4l-2.2-3.2a1.5,1.5,0,0,0-2.4,0l-1.8,2.7a64.73,64.73,0,0,0-11.1,33.7,17.54,17.54,0,0,0-6.4,10.5l-.5,2.6A1,1,0,0,0,30.62,56.21Zm19.5-33.7a6,6,0,1,1-6,6A6,6,0,0,1,50.12,22.51Z"/></svg>